<?xml version="1.0" encoding="UTF-8" standalone="no"?>
<svg width="128px" height="128px" viewBox="0 0 128 128" version="1.1" xmlns="http://www.w3.org/2000/svg" xmlns:xlink="http://www.w3.org/1999/xlink" xmlns:sketch="http://www.bohemiancoding.com/sketch/ns">
    <!-- Generator: Sketch 3.3.3 (12081) - http://www.bohemiancoding.com/sketch -->
    <title>128</title>
    <desc>Created with Sketch.</desc>
    <defs></defs>
    <g id="Page-1" stroke="none" stroke-width="1" fill="none" fill-rule="evenodd" sketch:type="MSPage">
        <g id="128" sketch:type="MSArtboardGroup" fill="#FFDE00">
            <path d="M64,59.4283905 C64,59.4283905 81.3973617,39.0056592 81.3973617,29.3973617 C81.3973617,19.7890641 73.6082975,12 64,12 C54.3917025,12 46.6026383,19.7890641 46.6026383,29.3973617 C46.6026383,39.0056592 64,59.4283905 64,59.4283905 Z M68.347859,62.587295 C68.347859,62.587295 93.1471111,72.8221981 102.285145,69.8530709 C111.423179,66.8839436 116.424066,57.0691503 113.454939,47.9311163 C110.485812,38.7930823 100.671018,33.7921953 91.5329843,36.7613225 C82.3949503,39.7304498 68.347859,62.587295 68.347859,62.587295 Z M66.6871246,67.6985098 C66.6871246,67.6985098 64.6165437,94.4467591 70.2641593,102.220035 C75.9117749,109.993311 86.7915571,111.716499 94.5648331,106.068884 C102.338109,100.421268 104.061297,89.5414858 98.4136817,81.7682099 C92.7660662,73.9949339 66.6871246,67.6985098 66.6871246,67.6985098 Z M61.3128754,67.6985098 C61.3128754,67.6985098 35.2339338,73.9949339 29.5863183,81.7682099 C23.9387027,89.5414858 25.6618909,100.421268 33.4351669,106.068884 C41.2084429,111.716499 52.0882251,109.993311 57.7358407,102.220035 C63.3834563,94.4467591 61.3128754,67.6985098 61.3128754,67.6985098 Z M59.652141,62.587295 C59.652141,62.587295 45.6050497,39.7304498 36.4670157,36.7613225 C27.3289818,33.7921953 17.5141884,38.7930823 14.5450612,47.9311163 C11.5759339,57.0691503 16.5768209,66.8839436 25.7148549,69.8530709 C34.8528889,72.8221981 59.652141,62.587295 59.652141,62.587295 Z" id="Oval-1" sketch:type="MSShapeGroup"></path>
        </g>
    </g>
</svg>