<?xml version="1.0" encoding="UTF-8" standalone="no"?>
<svg width="1440px" height="1024px" viewBox="0 0 1440 1024" version="1.1" xmlns="http://www.w3.org/2000/svg" xmlns:xlink="http://www.w3.org/1999/xlink" xmlns:sketch="http://www.bohemiancoding.com/sketch/ns">
    <!-- Generator: Sketch 3.1.1 (8761) - http://www.bohemiancoding.com/sketch -->
    <title>BG</title>
    <desc>Created with Sketch.</desc>
    <defs></defs>
    <g id="Page-1" stroke="none" stroke-width="1" fill="none" fill-rule="evenodd" sketch:type="MSPage">
        <g id="Desktop-HD" sketch:type="MSArtboardGroup">
            <g id="BG" sketch:type="MSLayerGroup" transform="translate(-141.000000, 0.000000)">
                <rect id="Rectangle-7" fill="#E0EBE9" sketch:type="MSShapeGroup" x="141" y="0" width="1440" height="1024"></rect>
                <polygon id="Triangle-4" fill="#79768A" sketch:type="MSShapeGroup" transform="translate(334.815372, 848.044269) rotate(51.000000) translate(-334.815372, -848.044269) " points="334.815372 679.544269 503.315372 1016.54427 166.315372 1016.54427 "></polygon>
                <polygon id="Triangle-17" fill="#79768A" sketch:type="MSShapeGroup" transform="translate(1580.815372, 1024.044269) rotate(51.000000) translate(-1580.815372, -1024.044269) " points="1580.81537 855.544269 1749.31537 1192.54427 1412.31537 1192.54427 "></polygon>
                <polygon id="Triangle-8" fill="#79768A" sketch:type="MSShapeGroup" transform="translate(1085.888423, 861.031466) rotate(328.000000) translate(-1085.888423, -861.031466) " points="1085.88842 742.59593 1204.32396 979.467002 967.452887 979.467002 "></polygon>
                <polygon id="Triangle-11" fill="#79768A" sketch:type="MSShapeGroup" transform="translate(602.161954, 672.894971) rotate(61.000000) translate(-602.161954, -672.894971) " points="602.161954 554.459435 720.59749 791.330507 483.726418 791.330507 "></polygon>
                <polygon id="Triangle-5" fill="#CECCDA" sketch:type="MSShapeGroup" transform="translate(731.500000, 923.500000) rotate(306.000000) translate(-731.500000, -923.500000) " points="731.5 831 824 1016 639 1016 "></polygon>
                <polygon id="Triangle-12" fill="#CECCDA" sketch:type="MSShapeGroup" transform="translate(528.000000, 632.000000) rotate(169.000000) translate(-528.000000, -632.000000) " points="528 570 590 694 466 694 "></polygon>
                <polygon id="Triangle-9" fill="#CECCDA" sketch:type="MSShapeGroup" transform="translate(1201.500000, 731.500000) rotate(9.000000) translate(-1201.500000, -731.500000) " points="1201.5 564 1369 899 1034 899 "></polygon>
                <polygon id="Triangle-15" fill="#CECCDA" sketch:type="MSShapeGroup" transform="translate(814.500000, 698.500000) rotate(272.000000) translate(-814.500000, -698.500000) " points="814.5 580 933 817 696 817 "></polygon>
                <polygon id="Triangle-10" fill="#A09AC2" sketch:type="MSShapeGroup" points="387 719 516 977 258 977 "></polygon>
                <polygon id="Triangle-6" fill="#A09AC2" sketch:type="MSShapeGroup" transform="translate(811.000000, 892.000000) rotate(347.000000) translate(-811.000000, -892.000000) " points="811 826 877 958 745 958 "></polygon>
                <polygon id="Triangle-7" fill="#A09AC2" sketch:type="MSShapeGroup" transform="translate(1429.321229, 742.399101) rotate(54.000000) translate(-1429.321229, -742.399101) " points="1429.32123 578.899101 1592.82123 905.899101 1265.82123 905.899101 "></polygon>
                <polygon id="Triangle-13" fill="#A09AC2" sketch:type="MSShapeGroup" transform="translate(226.321229, 511.899101) rotate(33.000000) translate(-226.321229, -511.899101) " points="226.321229 348.399101 389.821229 675.399101 62.8212291 675.399101 "></polygon>
                <polygon id="Triangle-14" fill="#79768A" sketch:type="MSShapeGroup" transform="translate(1429.437084, 633.969711) rotate(43.000000) translate(-1429.437084, -633.969711) " points="1429.43708 545.243329 1518.16347 722.696093 1340.7107 722.696093 "></polygon>
                <polygon id="Triangle-16" fill="#79768A" sketch:type="MSShapeGroup" transform="translate(902.071007, 652.213094) rotate(-17.000000) translate(-902.071007, -652.213094) " points="902.071007 594.914695 959.369406 709.511492 844.772609 709.511492 "></polygon>
            </g>
        </g>
    </g>
</svg>